/* XPM */
static char *d68723d4d5a1459bf319c873b059ce0cwVSHOd7FBUB3qXM1[] = {
/* columns rows colors chars-per-pixel */
"64 64 5 1 ",
"  c black",
". c #3E2723",
"X c #6D4C41",
"o c #FF9800",
"O c white",
/* pixels */
"oooooooooooooooooooooooooooooooooooooooooooooooooooooooooooooooo",
"oooooooooooooooooooooooooooooooooooooooooooooooooooooooooooooooo",
"oooooooooooooooooooooooooooooooooooooooooooooooooooooooooooooooo",
"oooooooooooooooooooooooooooooooooooooooooooooooooooooooooooooooo",
"oooooooooooooooooooooooooooooooooooooooooooooooooooooooooooooooo",
"oooooooooooooooooooooooooooooooooooooooooooooooooooooooooooooooo",
"ooooooooooooooooooooo......................ooooooooooooooooooooo",
"ooooooooooooooooooo...........................oooooooooooooooooo",
"oooooooooooooooo.........XXXXXXXXXXXXX..........oooooooooooooooo",
"ooooooooooooooo....XXXXXXXXXXXXXXXXXXXXX........oooooooooooooooo",
"oooooooooooooo...XXXXXXXXXXXXXXXXXXXXXXXXXX......ooooooooooooooo",
"ooooooooooooo....XXXXXXXXXXXXXXXXXXXXXXXXXXXX.....oooooooooooooo",
"oooooooooooo...XXXXXXXXXXXXXXXXXXXXXXXXXXXXXXXXX...ooooooooooooo",
"ooooooooooo...XXXXXXXXXXXXXXXXXXXXXXXXXXXXXXXXXX....oooooooooooo",
"ooooooooo....XXXXXXXXXXXXXXXXXXXXXXXXXXXXXXXXXXXX....ooooooooooo",
"oooooooo.....XXXXXXXXXXXXXXXXXXXXXXXXXXXXXXXXXXXXX....oooooooooo",
"oooooooo....XXXXXXXXXXXXXXXXXXXXXXXXXXXXXXXXXXXXXX.....ooooooooo",
"oooooooo...XXXXXXXXXXXXXXXXXXXXXXXXXXXXXXXXXXXXXXXX....ooooooooo",
"oooooooo...XXXXXXXXXXXXXXXXXXXXXXXXXXXXXXXXXXXXXXXXX...ooooooooo",
"oooooooo...XXXXXXXXXXXXXXXXXXOOOXXXXXXXXXXXXXXXXXXXX...ooooooooo",
"oooooooo...XXXXXXXXXXXXXXXXXXOOOXXXXXXXXXXXXXXXXXXXX...ooooooooo",
"oooooooo...XXXXXXXXXXXXXXXXXXOOOXXXXXXXXXXXXXXXXXXXX...ooooooooo",
"oooooooo...XXXXXXXXXXXXXXXXXXXXXXXXXXXXXXXXXXXXXXXXX...ooooooooo",
"oooooooo...XXXXXXXXXXXXXXXXXXXXXXXXXXXXXXXXXXXXXXXXX...ooooooooo",
"oooooooo...XXXXXXXXXXXXXXXXXXXXXXXXXXXXXXXXXXXXXXXXX...ooooooooo",
"oooooooo...XXXXXXXXXXXXXXXXXXXXXXXXXXXXXXXXXXXXXXXXX...ooooooooo",
"oooooooo...XXXXXXXXXXXXXXXXXXXXXXXXXXXXXXXXXXXXXXXXX...ooooooooo",
"oooooooo...XXXXXXXXXXXXXXXXXXXXXXXXXXXXXXXXXXXXXXXXX...ooooooooo",
"oooooooo...XXXXXXXXXXXXXXXXXXXXXXXXXXXXXXXXXXXXXXXXX...ooooooooo",
"oooooooo...XXXXXXXXXXXXXXXXXXXXXXXXXXXXXXXXXXXXXXXXX...ooooooooo",
"oooooooo...XXXXXXXXXXXXXXXXXXXXXXXXXXXXXXXXXXXXXXXXX...ooooooooo",
"oooooooo...XXXXXXXXXXXXXXXXXXXXXXXXXXXXXXXXXXXXXXXXX...ooooooooo",
"oooooooo...XXXXXXXXXXXXXXXXXXXXXXXXXXXXXXXXXXXXXXXXX...ooooooooo",
"oooooooo...XXXXXXXXXXXXXXXXXXXXXXXXXXXXXXXXXXXXXXXXX...ooooooooo",
"oooooooo...XXXXXXXXXXXXXXXXXXXXXXXXXXXXXXXXXXXXXXXXX...ooooooooo",
"oooooooo...XXXXXXXXXXXXXXXXXXXXXXXXXXXXXXXXXXXXXXXXX...ooooooooo",
"oooooooo...XXXXXXXXXXXXXXXXXXXXXXXXXXXXXXXXXXXXXXXXX...ooooooooo",
"oooooooo...XXXXXXXXXXXXXXXXXXXXXXXXXXXXXXXXXXXXXXXXX...ooooooooo",
"oooooooo...XXXXXXXXXXXXXXXXXXXXXXXXXXXXXXXXXXXXXXXXX...ooooooooo",
"oooooooo...XXXXXXXXXXXXXXXXXXXXXXXXXXXXXXXXXXXXXXXXX...ooooooooo",
"oooooooo...XXXXXXXXXXXXXXXXXXXXXXXXXXXXXXXXXXXXXXXXX...ooooooooo",
"oooooooo...XXXXXXXXXXXXXXXXXXXXXXXXXXXXXXXX  XXXXXXX...ooooooooo",
"oooooooo...XXXXXXXXXXXXXXXXXXXXXXXXXXXXXXX    XXXXXX...ooooooooo",
"oooooooo...XXXXXXXXXXXXXXXXXXXXXXXXXXXXXXX    XXXXXX...ooooooooo",
"oooooooo...XXXXXXXXXXXXXXXXXXXXXXXXXXXXXXX    XXXXXX...ooooooooo",
"oooooooo...XXXXXXXXXXXXXXXXXXXXXXXXXXXXXXXX  XXXXXXX...ooooooooo",
"oooooooo...XXXXXXXXXXXXXXXXXXXXXXXXXXXXXXXXXXXXXXXXX...ooooooooo",
"oooooooo...XXXXXXXXXXXXXXXXXXXXXXXXXXXXXXXXXXXXXXXXX...ooooooooo",
"oooooooo...XXXXXXXXXXXXXXXXXXXXXXXXXXXXXXXXXXXXXXXXX...ooooooooo",
"oooooooo...XXXXXXXXXXXXXXXXXXXXXXXXXXXXXXXXXXXXXXXXX...ooooooooo",
"oooooooo...XXXXXXXXXXXXXXXXXXXXXXXXXXXXXXXXXXXXXXXXX...ooooooooo",
"oooooooo...XXXXXXXXXXXXXXXXXXXXXXXXXXXXXXXXXXXXXXXXX...ooooooooo",
"oooooooo...XXXXXXXXXXXXXXXXXXXXXXXXXXXXXXXXXXXXXXXXX...ooooooooo",
"oooooooo...XXXXXXXXXXXXXXXXXXXXXXXXXXXXXXXXXXXXXXXXX...ooooooooo",
"oooooooo...XXXXXXXXXXXXXXXXXXXXXXXXXXXXXXXXXXXXXXXXX...ooooooooo",
"oooooooo...XXXXXXXXXXXXXXXXXXXXXXXXXXXXXXXXXXXXXXXXX...ooooooooo",
"oooooooo...XXXXXXXXXXXXXXXXXXXXXXXXXXXXXXXXXXXXXXXXX...ooooooooo",
"oooooooo...XXXXXXXXXXXXXXXXXXXXXXXXXXXXXXXXXXXXXXXXX...ooooooooo",
"oooooooo...XXXXXXXXXXXXXXXXXXXXXXXXXXXXXXXXXXXXXXXXX...ooooooooo",
"oooooooo...XXXXXXXXXXXXXXXXXXXXXXXXXXXXXXXXXXXXXXXXX...ooooooooo",
"oooooooo...XXXXXXXXXXXXXXXXXXXXXXXXXXXXXXXXXXXXXXXXX...ooooooooo",
"oooooooo...XXXXXXXXXXXXXXXXXXXXXXXXXXXXXXXXXXXXXXXXX...ooooooooo",
"oooooooo...XXXXXXXXXXXXXXXXXXXXXXXXXXXXXXXXXXXXXXXXX...ooooooooo",
"oooooooo...XXXXXXXXXXXXXXXXXXXXXXXXXXXXXXXXXXXXXXXXX...ooooooooo"
};
