/* XPM */
static char *_865a104c7f747bdff9003da784899f8BDy2S0PnGqsrRzjb[] = {
/* columns rows colors chars-per-pixel */
"64 64 6 1 ",
"  c black",
". c #D50000",
"X c #FF5252",
"o c #22B14C",
"O c #FFEBEE",
"+ c white",
/* pixels */
"oooooooooooooooooooooooooooooooooooooooooooooooooooooooooooooooo",
"oooooooooooooooooooooooooooooooooooooooooooooooooooooooooooooooo",
"oooooooooooooooooooooooooooooooooooooooooooooooooooooooooooooooo",
"oooooooooooooooooooooooooooooooooooooooooooooooooooooooooooooooo",
"oooooooooooooooooooooooooooooooooooooooooooooooooooooooooooooooo",
"oooooooooooooooooooooooooooooooooooooooooooooooooooooooooooooooo",
"oooooooooooooooooooooooooooooooooooooooooooooooooooooooooooooooo",
"oooooooooooooooooooooooooooooooooooooooooooooooooooooooooooooooo",
"oooooooooooooooooooooooooooooooooooooooooooooooooooooooooooooooo",
"oooooooooooooooooooooooooooooooooooooooooooooooooooooooooooooooo",
"oooooooooooooooooooooooooooooooooooooooooooooooooooooooooooooooo",
"oooooooooooooooooooooooooooooooooooooooooooooooooooooooooooooooo",
"oooooooooooooooooooooooooooooooooooooooooooooooooooooooooooooooo",
"oooooooooooooooooooooooooooooooooooooooooooooooooooooooooooooooo",
"ooooooooooo            ooooooooooooooooo            oooooooooooo",
"oooooooooo oooooooooooo ooooooooooooooo oooooooooooo ooooooooooo",
"ooooooooo ooooo  +oooooo ooooooooooooo ooooo  +oooooo oooooooooo",
"ooooooooo ooooo  +oooooo ooooooooooooo ooooo  +oooooo oooooooooo",
"ooooooooo ooooo   oooooo ooooooooooooo ooooo   oooooo oooooooooo",
"oooooooooo oooooooooooo ooooooooooooooo oooooooooooo ooooooooooo",
"ooooooooooo            ooooooooooooooooo            oooooooooooo",
"oooooooooooooooooooooooooooooooooooooooooooooooooooooooooooooooo",
"oooooooooooooooooooooooooooooooooooooooooooooooooooooooooooooooo",
"oooooooooooooooooooooooooooooooooooooooooooooooooooooooooooooooo",
"oooooooooooooooooooooooooooooooooooooooooooooooooooooooooooooooo",
"oooooooooooooooooooooooooooooooooooooooooooooooooooooooooooooooo",
"oooooooooooooooooooooooooooooooooooooooooooooooooooooooooooooooo",
"oooooooooooooooooooooooooooooooooooooooooooooooooooooooooooooooo",
"oooooooooooooooooooooooooooooooooooooooooooooooooooooooooooooooo",
"oooooooooooooooooooooooooooooooooooooooooooooooooooooooooooooooo",
"oooooooooooooooooooooooooooooooooooooooooooooooooooooooooooooooo",
"oooooooooooooooooooooooooooooooooooooooooooooooooooooooooooooooo",
"oooooooooooooooooooooooooooooooooooooooooooooooooooooooooooooooo",
"oooooooooooooooooooooooooooooooooooooooooooooooooooooooooooooooo",
"oooooooooooooooooooooooooooooooooooooooooooooooooooooooooooooooo",
"oooooooooooooooooooooooooooooooooooooooooooooooooooooooooooooooo",
"oooooooooooooooooooooooooooooooo.ooooooooooooooooooooooooooooooo",
"ooooooooooooooooooooooooo...........oooooooooooooooooooooooooooo",
"oooooooooooooooooo........................oooooooooooooooooooooo",
"ooooooooooooooooo..XXXXXXXXXOOOXOOOXXXXXX...oooooooooooooooooooo",
"oooooooooooooooo..XXXXXXXXXXOOOXOOOXXXXXXXX..ooooooooooooooooooo",
"oooooooooooooooo..XXXXXXXXXXOOOXOOOXXXXXXXXX..oooooooooooooooooo",
"oooooooooooooooo...XXXXXXXXXXXXXXXXXXXXXXXXX..oooooooooooooooooo",
"oooooooooooooooo...XXXXXXXXXXXXXXXXXXXXXXXX..ooooooooooooooooooo",
"oooooooooooooooooo..XXXXXXXXXXXXXXXXXXXXXXX.oooooooooooooooooooo",
"ooooooooooooooooooo..XXXXXXXXXXXXXXXXXXXXX..oooooooooooooooooooo",
"oooooooooooooooooooo...XXXXXXXXXXXXXXXXXX..ooooooooooooooooooooo",
"oooooooooooooooooooooo...XXXXXXXXXXXXX...ooooooooooooooooooooooo",
"oooooooooooooooooooooooo...............ooooooooooooooooooooooooo",
"ooooooooooooooooooooooooooooo.....oooooooooooooooooooooooooooooo",
"oooooooooooooooooooooooooooooooooooooooooooooooooooooooooooooooo",
"oooooooooooooooooooooooooooooooooooooooooooooooooooooooooooooooo",
"oooooooooooooooooooooooooooooooooooooooooooooooooooooooooooooooo",
"oooooooooooooooooooooooooooooooooooooooooooooooooooooooooooooooo",
"oooooooooooooooooooooooooooooooooooooooooooooooooooooooooooooooo",
"oooooooooooooooooooooooooooooooooooooooooooooooooooooooooooooooo",
"oooooooooooooooooooooooooooooooooooooooooooooooooooooooooooooooo",
"oooooooooooooooooooooooooooooooooooooooooooooooooooooooooooooooo",
"oooooooooooooooooooooooooooooooooooooooooooooooooooooooooooooooo",
"oooooooooooooooooooooooooooooooooooooooooooooooooooooooooooooooo",
"oooooooooooooooooooooooooooooooooooooooooooooooooooooooooooooooo",
"oooooooooooooooooooooooooooooooooooooooooooooooooooooooooooooooo",
"oooooooooooooooooooooooooooooooooooooooooooooooooooooooooooooooo",
"oooooooooooooooooooooooooooooooooooooooooooooooooooooooooooooooo"
};
