/* XPM */
static char *_fa5c280dd9a41c9a4e641070c95c4bfcMy9Da2Atw3VGeyA[] = {
/* columns rows colors chars-per-pixel */
"64 64 6 1 ",
"  c black",
". c #464646",
"X c #9C5A3C",
"o c #FF7E00",
"O c #FFC20E",
"+ c #F5E49C",
/* pixels */
"                                                                ",
" XXXXXXXXXXXXXXXXXXXXXXXXXXXXXXXXX.....XXXXXXXXXXXX XXXXXXXXXXX ",
" XXXXXXXXXXXXoooooXXXXXX  XXXXXXXXXXXXX.X.XXXXXXXXXXXXXXXXXXXXX ",
" XXXXXXXXXXXXXXXX.X.XXXXXX XXXXXXXXXXXXXoooXXXXXoooXoXXXXXXXXXX ",
" XXXX............XXX..X.X.o   oXXXXXXXXooooXooXoXXXXoX  XXXXXXX ",
" XXXXXXXXXXXXXXXXXXXXXXXXXXXoX   XXXXXXX XXXXooXXXXoX XXXXXXXXX ",
" XXXXX XXOOOOOXX XXXXXXoXXXXXXXXXXXXXXX XXXXooXXXXo  OXXXXXXXXX ",
" XXXXX XXOXXXXXXX XXXXXXXXXXXXXXXXXXX  XXXXXXXXXXo OOOXXX.XXXXX ",
" XXXXXX XOoXX  XX XXoXXXXXXXXXXXX.XXXXXXXXXXXXXX  XOOOXXX.XXXXX ",
" XXXXXX XooX  XXXo XXXXXXXXXXXX..X  XXXXXXXXXXX ooXOOXXXX.XXXXX ",
" XXXXXXX oo  XXXXX XXXXoXXX...XXXXXXXXXXXXXXXXXXXXXXXXX...XXXXX ",
" XXXXXXXXooXXXXXXX XXX..XX.XXXXXXXXXXXXXXXXX XXXXXXXX..XX...XXX ",
" XXXXXXXoXoXoXXX..  XXXXXXXXXXXX X++XXXXXX  XXXXXXXXX.XXXXXXXXX ",
" XXX XXXoX+++XX++++ X++X+++XXXXXXXXXXXXXXXXXXXXXXXXo.XXXX.XXXXX ",
" XXX XXX...XXXXXXXXXXXXXXoXXXXXXXXXXXXXXXXXX+XXXXXXXX.XXX.XXXXX ",
" XXX  XXoooXXXXXXXXX+XXXoXXXXXXXXXXXXXXXXXXXX+XXoXXXXX..XX.XXXX ",
" XXXX  oXXX    X  X     XXX XXXX   XXXXXXXXXX+XXXXXXXX..XXXXXXX ",
" XXXXooXoXoXXXXXXXXX+XXXXXXXXXXXXXXXXXXXXXXXXXXXXXXXX.XXXXXXXXX ",
" XXXooXXXooXXXXXXXXXXXXXXXXXXXXX.XXXXXXXXXXX   XXXXXXXXXXXXXXXX ",
" XXXXooXoooXXoXXXXX+XXXoXXXXXXXXXXXXX.XXXXXXX+XXXXXXXoXoXoXXXXX ",
" XXXXXXXXoXXXoXXXXX+XXXXXXXXXXXXX.XXXXXXXXXXoX+XXXX oXXXXooXXXX ",
" XXXXXXXXoXXXXXXXXXXXXXXXXXXXXXXXXXXXXXXXXXXXo+XXoXX XXXXXXXXXX ",
" XXXXXXXXXXXXXXXXX+XXXXXXoXXXXXXXXXXXXXX XXXXX+XXXXXX XXXXXXXXX ",
" XXXXXXXXXXXXXXXXXXXXXXXXXXXXXoXXX   XXXXXXXXX+XXXXXXXX  XXXXXX ",
" XXX XXXXXX oXXXXXXXXXXXXXXXX    X+X+XX++XXXXXX XXXXXoXX  XX.XX ",
" XXXXX  XXX oXXXXXXX X  XX XXXX+XoXXXXXXo+X++XXXXXXXXXXXX XX.XX ",
" XXXXXXXXXX XXXXXXXXXXXXXXXXXX+oXXXXX.XXXXXoX XXXXXXXXXXXXXX.XX ",
" XXX.XXXXXX XX+XXX XXXXXXXXXoXo XXXXXXXoXXXX XXXXXXXXXXoooX.XXX ",
" XX.XXXXXXXXXXXXX++XXXoXXXX+XooXXXXXXXX.XXX XXX+XXXoXXXXoXX.XXX ",
" XX.XXXXXXXXX.XXXXXXX+XXXX+oXoXXXXXXXXXX.XXXXXX+XXXXXXXXoX.XXXX ",
" XX.XXXXXXX XX.XXXXXXXXXXXoXXXXXXXXXXXXXX XXoXX+XXXXXXXoXX.XXXX ",
" XX.XXXXXXXXXXXX.XXXXXoXX XXXXXXXXXXXXXX XXoXXX+XXXXXXXXXo.oooo ",
" XX..X.XXXXXXXXXXX.XXXXX XXX++XXXoXXXX  oXX.XXXoXXXXXoXXXX.XXXX ",
" XXXXXXXXX XXXXXX XXX+XX oXXoXXXXXXoXXoXXXXXXXXXXXXXXXXXoX.XXoo ",
" XXXXXXXXX XXXXXXXXX+XX XoXXoXXXoXXXXXXXXXX.X.XXXXXXXXXXoooooXX ",
" XXXXXXoXX XoXXXXXXXXX XXXXXXXXXX  X+XXXX.XXXoXX+XXXoXXXoXXXXXX ",
" XXXXXoXXXXXXXXXXXXoXX.XXXXoXXXXXoXXX+++XXoXXXXX.XXXXXXXXXXXXXX ",
" XXXooXXXXXXXXXXXXXoXXX.XXXXoXXXoXXXX..oXXXXooXXXXXX..XXXXXXXXX ",
" XXXXXXXXXXXXXXX+XX XXXXXXXXXX XX X.XXXoXXXXXXXXXXXXXoXXXXXXXXX ",
" XXXXXXX.XXXXXXXXX XXXXXXXXXXXXXX .oXXoXXXXXXXXXXXXXXXXXX...XXX ",
" XXXXXXX.XXXXXXXXX XXXXXXX.XXXXXoXoXXXXXXXXXXXXXXXXXXXXXXXXXXXX ",
" XXXXXXXXXXXX+XoX XXXXXXXXXoXXXX.XXXXXXXXXXXXoXXXX.XXXXXXXXXXXX ",
" XXXXXXXXXXXXXXoXXXXXXoXXXXoXX..XXXXXXXXXXXXXXXXXXXXXXXXX.XXXXX ",
" XXXXXXXXXXXXX XXXoXoXXXXXXXX..XXXXXXXXXX  XXXXXXXX.XXXXX.XXXXX ",
" XXXXXXXXXXXX XXXXoXXXXXXXXX.XX.XXXX+XXXX XXoXXXXXXXXXXXX. XXXX ",
" XXXXXXXXXXX  XXXXXXXXXXXXXXXXXo.XXX+XXXXXXXXXXXXXXXXXXX  XXXXX ",
" XXXXXXXXXXXXXXXXXXXXXXXXXXXXooXX.XXXXXX XXXXX XXXXXX.X X.XXXXX ",
" XXXXXXXXXXXoXXXXXXXXXXXX.XooXXXXXX+XXX XXXXXXXXXXoXXX XX.XXXXX ",
" XXXXXX XXXXXXXXXXXXXXXX.XoXXXXXX+XXXXXXXXXoXXoXoXXXX XXXXXXXXX ",
" XXXXXX XXXXXXXXXXXXoXXooXXXXXX++XXXXX XXXXoXXX  X  XXXXX.XXXXX ",
" XXXXXX XXXXXXXXXXXXXXXXXXX XX+XXXXXXX XXXXXXXXoXXXXXXXXXXXXXXX ",
" XXXXXX XXXXXXXXXXXXXXXXXXX X+XXXXXXX .XXXXXXXoXXXXXXXXXXXXXXXX ",
" XXXXXXXXXXXXXXX...XXXXXXXX +XXXXXOX  XXXXXXXXoXXXXXXXXXXXXXXXX ",
" XXXXXXXX    XXXXXXXXXXXXX+ XXXXXXXX .XXXXoXXXXXXXXXXXXXXXXXXXX ",
" XXXXXXX.....XXXX     XXXXXX XXXXOX .XXXXoXXXoXXXXXXXXXXXXX   X ",
" XXXXXXXXXXXXXXXXXXXXXXXXXXXXXXXXX.XXXXOXoXXoXXXXXX XX    XXXXX ",
" XXXXXXXXX XXXX..XXX XXXXXXX  XXXXXXXXXOXoXXoXX   XOXXXXXXXXXXX ",
" XXXXXXX  XXXXXXXXXXXXXXXXXXX XX.XXXXXXOoXX    XXXXX.XXXXXXXXXX ",
" XXXXXX  XXXX.XXXXXXXXXXXXXXXXX.XXXXXXXXXXXXXXXXXXXX.OXXXXXXXXX ",
" XXXXXX XXXXXXXXXXXXXXXXXXXXXX.XXXXXXXXoXXoXXXXXXXXX.XXXXXXXXXO ",
" XXXXXXXXXXXXXXXXXXXXXXXXXXXXXXXXXXXXXXoXXoXXXXXXXXX.XXXXXXXXXX ",
" XXXXXXXXXX XXXXXXXXXXXXXXXXXXXXXXXXXXXoXoXXXXXXXXX.XXXXXXXXXXX ",
" XXXXXXX  XXXXXXXXXXXXXXXXXXXXXXXXXXXXoXoXXXXXXXXXX.XXXXXXXXXXX ",
"                                                   .            "
};
